# xmcd CD database file
#
# Track frame offsets:
#	150
#	13819
#	25106
#	38406
#	52003
#	66030
#	80097
#	93639
#	104991
#	119855
#	131452
#	153954
#	164951
#	180438
#	194072
#	213022
#	232169
#	249334
#	264749
#	278138
#
# Disc length: 3910 seconds
#
# Revision: 2
# Processed by: cddbd v1.5.2PL0 Copyright (c) Steve Scherf et al.
# Submitted via: CDex 1.70beta1
#
DISCID=2c0f4414
DTITLE=Various Artist - Superhits Of Country [CD3]
DYEAR=1900
DGENRE=
TTITLE0=The Bellamy Brothers - Do You Love As Good As You Look
TTITLE1=Johnny Rodriguez - Pass Me Baby
TTITLE2=Ray Stevens - Misty
TTITLE3=Mickey Gillie - True Love Ways
TTITLE4=Janie Fricke - Somebody Else's Fire
TTITLE5=Roy Clark - Honeymoon Feelin'
TTITLE6=Patti Page - Allegheny Moon
TTITLE7=Conway Twitty - It's Only Make Believe
TTITLE8=Lee Greenwood - God Bless The USA
TTITLE9=The Kendalls - Heaven's Just A Sin Away
TTITLE10=Eddie Rabbitt - Suspicion
TTITLE11=Ferlin Husky - Gone
TTITLE12=Gina Jeffreys - Up Close Personal Attention
TTITLE13=Freddy Weller - The Perfect Stranger
TTITLE14=Doug Ashdown - Winter In America
TTITLE15=Stella Parton - Sleeping With The Enemy
TTITLE16=Alex Harvey - Rings
TTITLE17=Becky Hobbs - I Don't Dance With Strangers
TTITLE18=Conway Twitty - Danny Boy
TTITLE19=Kenny Rogers - Just Dropped In
EXTD=
EXTT0=
EXTT1=
EXTT2=
EXTT3=
EXTT4=
EXTT5=
EXTT6=
EXTT7=
EXTT8=
EXTT9=
EXTT10=
EXTT11=
EXTT12=
EXTT13=
EXTT14=
EXTT15=
EXTT16=
EXTT17=
EXTT18=
EXTT19=
PLAYORDER=
